<?xml version="1.0" standalone="no"?>
<!DOCTYPE svg PUBLIC "-//W3C//DTD SVG 20010904//EN"
 "http://www.w3.org/TR/2001/REC-SVG-20010904/DTD/svg10.dtd">
<svg version="1.0" xmlns="http://www.w3.org/2000/svg"
 width="116.000000pt" height="116.000000pt" viewBox="0 0 116.000000 116.000000"
 preserveAspectRatio="xMidYMid meet">
<metadata>
Created by potrace 1.14, written by Peter Selinger 2001-2017
</metadata>
<g transform="translate(0.000000,116.000000) scale(0.100000,-0.100000)"
fill="#000000" stroke="none">
<path d="M0 1020 l0 -140 140 0 140 0 0 140 0 140 -140 0 -140 0 0 -140z m240
0 l0 -100 -100 0 -100 0 0 100 0 100 100 0 100 0 0 -100z"/>
<path d="M80 1020 l0 -60 60 0 60 0 0 60 0 60 -60 0 -60 0 0 -60z"/>
<path d="M600 1100 c0 -53 -2 -60 -20 -60 -13 0 -20 7 -20 20 0 13 -7 20 -20
20 -13 0 -20 7 -20 20 0 18 -7 20 -80 20 -73 0 -80 -2 -80 -20 0 -13 -7 -20
-20 -20 -19 0 -20 -7 -20 -120 0 -113 1 -120 20 -120 17 0 20 -7 20 -40 0 -33
-3 -40 -20 -40 -13 0 -20 7 -20 20 0 13 -7 20 -20 20 -13 0 -20 7 -20 20 0 19
-7 20 -100 20 -93 0 -100 -1 -100 -20 0 -13 -7 -20 -20 -20 -13 0 -20 7 -20
20 0 13 -7 20 -20 20 -17 0 -20 -7 -20 -40 0 -33 3 -40 20 -40 13 0 20 -7 20
-20 0 -13 7 -20 20 -20 17 0 20 7 20 40 0 33 3 40 20 40 18 0 20 -7 20 -60 0
-53 -2 -60 -20 -60 -17 0 -20 -7 -20 -40 l0 -40 60 0 c53 0 60 -2 60 -20 0
-18 7 -20 60 -20 53 0 60 2 60 20 0 13 7 20 20 20 13 0 20 7 20 20 0 13 -7 20
-20 20 -17 0 -20 7 -20 40 0 33 3 40 20 40 13 0 20 7 20 20 0 13 7 20 20 20
17 0 20 -7 20 -40 0 -33 3 -40 20 -40 17 0 20 -7 20 -40 l0 -40 40 0 c33 0 40
-3 40 -20 0 -13 -7 -20 -20 -20 -18 0 -20 -7 -20 -60 0 -53 -2 -60 -20 -60
-17 0 -20 7 -20 40 l0 40 -60 0 c-53 0 -60 -2 -60 -20 0 -13 -7 -20 -20 -20
-13 0 -20 7 -20 20 0 13 -7 20 -20 20 -13 0 -20 -7 -20 -20 0 -13 -7 -20 -20
-20 -13 0 -20 7 -20 20 0 13 -7 20 -20 20 -13 0 -20 7 -20 20 0 17 -7 20 -40
20 l-40 0 0 -60 c0 -53 2 -60 20 -60 13 0 20 7 20 20 0 17 7 20 40 20 l40 0 0
-40 0 -40 -60 0 c-53 0 -60 -2 -60 -20 0 -17 7 -20 40 -20 33 0 40 -3 40 -20
0 -18 7 -20 60 -20 53 0 60 2 60 20 0 13 7 20 20 20 17 0 20 -7 20 -40 0 -33
3 -40 20 -40 13 0 20 -7 20 -20 0 -13 -7 -20 -20 -20 -18 0 -20 -7 -20 -80 0
-73 2 -80 20 -80 18 0 20 7 20 60 0 53 2 60 20 60 18 0 20 -7 20 -60 0 -53 2
-60 20 -60 18 0 20 7 20 60 0 53 -2 60 -20 60 -13 0 -20 7 -20 20 0 17 7 20
40 20 33 0 40 -3 40 -20 0 -13 7 -20 20 -20 13 0 20 7 20 20 0 13 -7 20 -20
20 -13 0 -20 7 -20 20 0 18 -7 20 -60 20 -53 0 -60 2 -60 20 0 18 7 20 60 20
53 0 60 2 60 20 0 13 7 20 20 20 13 0 20 -7 20 -20 0 -17 7 -20 40 -20 33 0
40 3 40 20 0 13 7 20 20 20 13 0 20 -7 20 -20 0 -17 7 -20 40 -20 33 0 40 -3
40 -20 0 -13 -7 -20 -20 -20 -13 0 -20 -7 -20 -20 0 -13 -7 -20 -20 -20 -13 0
-20 7 -20 20 0 13 -7 20 -20 20 -13 0 -20 -7 -20 -20 0 -13 -7 -20 -20 -20
-13 0 -20 -7 -20 -20 0 -13 7 -20 20 -20 13 0 20 -7 20 -20 0 -13 7 -20 20
-20 13 0 20 -7 20 -20 0 -13 -7 -20 -20 -20 -13 0 -20 -7 -20 -20 0 -13 -7
-20 -20 -20 -13 0 -20 7 -20 20 0 13 -7 20 -20 20 -13 0 -20 7 -20 20 0 13 -7
20 -20 20 -13 0 -20 -7 -20 -20 0 -13 7 -20 20 -20 17 0 20 -7 20 -40 l0 -40
-40 0 c-33 0 -40 -3 -40 -20 0 -17 7 -20 40 -20 33 0 40 3 40 20 0 17 7 20 40
20 33 0 40 3 40 20 0 13 7 20 20 20 17 0 20 -7 20 -40 l0 -40 80 0 c73 0 80 2
80 20 0 13 7 20 20 20 13 0 20 -7 20 -20 0 -13 7 -20 20 -20 13 0 20 7 20 20
0 13 -7 20 -20 20 -13 0 -20 7 -20 20 0 13 -7 20 -20 20 -17 0 -20 7 -20 40
l0 40 60 0 c53 0 60 -2 60 -20 0 -13 -7 -20 -20 -20 -13 0 -20 -7 -20 -20 0
-13 7 -20 20 -20 17 0 20 -7 20 -40 l0 -40 80 0 c73 0 80 2 80 20 0 13 7 20
20 20 17 0 20 7 20 40 0 33 3 40 20 40 13 0 20 7 20 20 0 13 -7 20 -20 20 -13
0 -20 7 -20 20 0 13 7 20 20 20 13 0 20 7 20 20 0 13 -7 20 -20 20 -13 0 -20
-7 -20 -20 0 -17 -7 -20 -40 -20 -33 0 -40 -3 -40 -20 0 -13 -7 -20 -20 -20
-17 0 -20 7 -20 40 l0 40 40 0 c33 0 40 3 40 20 0 17 7 20 40 20 l40 0 0 40
c0 33 -3 40 -20 40 -13 0 -20 7 -20 20 0 13 -7 20 -20 20 -18 0 -20 7 -20 60
0 53 2 60 20 60 13 0 20 7 20 20 0 13 -7 20 -20 20 -13 0 -20 7 -20 20 0 17
-7 20 -40 20 -33 0 -40 3 -40 20 0 17 7 20 40 20 33 0 40 3 40 20 0 13 7 20
20 20 13 0 20 7 20 20 0 13 -7 20 -20 20 -13 0 -20 -7 -20 -20 0 -13 -7 -20
-20 -20 -13 0 -20 7 -20 20 0 13 -7 20 -20 20 -17 0 -20 -7 -20 -40 0 -33 -3
-40 -20 -40 -13 0 -20 -7 -20 -20 0 -13 -7 -20 -20 -20 -13 0 -20 7 -20 20 0
17 -7 20 -40 20 -33 0 -40 -3 -40 -20 0 -13 -7 -20 -20 -20 -17 0 -20 7 -20
40 0 33 3 40 20 40 13 0 20 7 20 20 0 17 7 20 40 20 33 0 40 -3 40 -20 0 -13
7 -20 20 -20 13 0 20 7 20 20 0 13 -7 20 -20 20 -13 0 -20 7 -20 20 0 17 7 20
40 20 33 0 40 3 40 20 0 17 7 20 40 20 33 0 40 3 40 20 0 19 -7 20 -100 20
l-100 0 0 -40 c0 -33 -3 -40 -20 -40 -13 0 -20 7 -20 20 0 17 -7 20 -40 20
-33 0 -40 -3 -40 -20 0 -17 7 -20 40 -20 33 0 40 -3 40 -20 0 -17 -7 -20 -40
-20 l-40 0 0 -40 c0 -33 -3 -40 -20 -40 -13 0 -20 7 -20 20 0 13 -7 20 -20 20
-13 0 -20 -7 -20 -20 0 -18 -7 -20 -60 -20 -53 0 -60 2 -60 20 0 17 7 20 40
20 l40 0 0 40 c0 33 3 40 20 40 13 0 20 -7 20 -20 0 -13 7 -20 20 -20 13 0 20
7 20 20 0 13 -7 20 -20 20 -13 0 -20 7 -20 20 0 13 7 20 20 20 13 0 20 7 20
20 0 13 -7 20 -20 20 -17 0 -20 7 -20 40 0 33 3 40 20 40 13 0 20 -7 20 -20 0
-13 7 -20 20 -20 13 0 20 -7 20 -20 0 -13 7 -20 20 -20 13 0 20 7 20 20 0 13
7 20 20 20 18 0 20 7 20 60 0 53 -2 60 -20 60 -13 0 -20 7 -20 20 0 13 7 20
20 20 18 0 20 7 20 60 l0 60 -120 0 -120 0 0 -60z m200 0 c0 -13 -7 -20 -20
-20 -13 0 -20 -7 -20 -20 0 -17 -7 -20 -40 -20 l-40 0 0 -40 0 -40 -40 0 c-33
0 -40 3 -40 20 0 13 7 20 20 20 18 0 20 7 20 60 l0 60 80 0 c73 0 80 -2 80
-20z m-320 -40 c0 -13 7 -20 20 -20 13 0 20 -7 20 -20 0 -13 -7 -20 -20 -20
-13 0 -20 -7 -20 -20 0 -13 -7 -20 -20 -20 -13 0 -20 7 -20 20 0 13 -7 20 -20
20 -18 0 -20 -7 -20 -80 0 -73 2 -80 20 -80 17 0 20 7 20 40 0 33 3 40 20 40
17 0 20 -7 20 -40 0 -33 3 -40 20 -40 18 0 20 7 20 60 0 53 2 60 20 60 18 0
20 -7 20 -60 0 -53 -2 -60 -20 -60 -17 0 -20 -7 -20 -40 0 -33 -3 -40 -20 -40
-13 0 -20 -7 -20 -20 0 -17 7 -20 40 -20 33 0 40 -3 40 -20 0 -17 -7 -20 -40
-20 -33 0 -40 3 -40 20 0 13 -7 20 -20 20 -13 0 -20 7 -20 20 0 13 -7 20 -20
20 -17 0 -20 7 -20 40 0 33 -3 40 -20 40 -19 0 -20 7 -20 120 l0 120 60 0 c53
0 60 -2 60 -20z m320 -140 c0 -33 -3 -40 -20 -40 -13 0 -20 7 -20 20 0 13 -7
20 -20 20 -13 0 -20 7 -20 20 0 17 7 20 40 20 l40 0 0 -40z m-160 -40 c0 -33
3 -40 20 -40 13 0 20 -7 20 -20 0 -13 -7 -20 -20 -20 -13 0 -20 -7 -20 -20 0
-17 -7 -20 -40 -20 -33 0 -40 3 -40 20 0 17 7 20 40 20 33 0 40 3 40 20 0 13
-7 20 -20 20 -17 0 -20 7 -20 40 0 33 3 40 20 40 17 0 20 -7 20 -40z m-440
-120 l0 -40 40 0 c33 0 40 3 40 20 0 13 -7 20 -20 20 -13 0 -20 7 -20 20 0 13
7 20 20 20 13 0 20 -7 20 -20 0 -13 7 -20 20 -20 13 0 20 -7 20 -20 0 -13 -7
-20 -20 -20 -13 0 -20 -7 -20 -20 0 -17 -7 -20 -40 -20 -33 0 -40 -3 -40 -20
0 -17 -7 -20 -40 -20 -33 0 -40 3 -40 20 0 17 7 20 40 20 33 0 40 3 40 20 0
13 -7 20 -20 20 -17 0 -20 7 -20 40 0 33 3 40 20 40 17 0 20 -7 20 -40z m120
-140 c0 -17 -7 -20 -40 -20 -33 0 -40 3 -40 20 0 17 7 20 40 20 33 0 40 -3 40
-20z m240 0 c0 -13 7 -20 20 -20 13 0 20 -7 20 -20 0 -13 7 -20 20 -20 13 0
20 -7 20 -20 0 -13 7 -20 20 -20 18 0 20 7 20 60 0 53 2 60 20 60 17 0 20 -7
20 -40 0 -33 3 -40 20 -40 13 0 20 7 20 20 0 13 7 20 20 20 17 0 20 -7 20 -40
0 -33 3 -40 20 -40 17 0 20 7 20 40 0 33 3 40 20 40 17 0 20 -7 20 -40 0 -33
3 -40 20 -40 13 0 20 -7 20 -20 0 -13 -7 -20 -20 -20 -13 0 -20 -7 -20 -20 0
-13 7 -20 20 -20 17 0 20 -7 20 -40 l0 -40 -60 0 -60 0 0 -40 c0 -33 -3 -40
-20 -40 -13 0 -20 7 -20 20 0 13 -7 20 -20 20 -13 0 -20 7 -20 20 0 13 -7 20
-20 20 -18 0 -20 7 -20 60 0 53 -2 60 -20 60 -13 0 -20 -7 -20 -20 0 -13 -7
-20 -20 -20 -17 0 -20 -7 -20 -40 0 -33 -3 -40 -20 -40 -13 0 -20 7 -20 20 0
13 -7 20 -20 20 -18 0 -20 7 -20 80 0 73 2 80 20 80 13 0 20 7 20 20 0 13 -7
20 -20 20 -13 0 -20 7 -20 20 0 13 7 20 20 20 13 0 20 -7 20 -20z m440 -40 c0
-17 7 -20 40 -20 33 0 40 -3 40 -20 0 -17 -7 -20 -40 -20 -33 0 -40 -3 -40
-20 0 -13 7 -20 20 -20 17 0 20 -7 20 -40 0 -33 3 -40 20 -40 13 0 20 -7 20
-20 0 -13 -7 -20 -20 -20 -13 0 -20 -7 -20 -20 0 -13 -7 -20 -20 -20 -17 0
-20 7 -20 40 0 33 -3 40 -20 40 -13 0 -20 7 -20 20 0 13 7 20 20 20 13 0 20 7
20 20 0 13 -7 20 -20 20 -13 0 -20 7 -20 20 0 13 7 20 20 20 13 0 20 7 20 20
0 13 -7 20 -20 20 -13 0 -20 7 -20 20 0 13 7 20 20 20 13 0 20 -7 20 -20z
m-720 -120 c0 -13 -7 -20 -20 -20 -13 0 -20 7 -20 20 0 13 7 20 20 20 13 0 20
-7 20 -20z m120 -40 c0 -53 -2 -60 -20 -60 -13 0 -20 7 -20 20 0 13 -7 20 -20
20 -17 0 -20 7 -20 40 l0 40 40 0 40 0 0 -60z m-120 -40 c0 -13 -7 -20 -20
-20 -13 0 -20 7 -20 20 0 13 7 20 20 20 13 0 20 -7 20 -20z m200 0 c0 -13 -7
-20 -20 -20 -13 0 -20 7 -20 20 0 13 7 20 20 20 13 0 20 -7 20 -20z m480 -120
l0 -60 -60 0 -60 0 0 60 0 60 60 0 60 0 0 -60z m-320 -40 c0 -13 -7 -20 -20
-20 -13 0 -20 7 -20 20 0 13 7 20 20 20 13 0 20 -7 20 -20z m120 0 c0 -13 7
-20 20 -20 13 0 20 -7 20 -20 0 -17 -7 -20 -40 -20 -33 0 -40 3 -40 20 0 13
-7 20 -20 20 -13 0 -20 7 -20 20 0 17 7 20 40 20 33 0 40 -3 40 -20z m240 -80
c0 -13 -7 -20 -20 -20 -13 0 -20 7 -20 20 0 13 7 20 20 20 13 0 20 -7 20 -20z
m-280 -60 c0 -33 -3 -40 -20 -40 -17 0 -20 7 -20 40 0 33 3 40 20 40 17 0 20
-7 20 -40z m280 -20 c0 -13 -7 -20 -20 -20 -13 0 -20 7 -20 20 0 13 7 20 20
20 13 0 20 -7 20 -20z m80 0 c0 -13 -7 -20 -20 -20 -13 0 -20 7 -20 20 0 13 7
20 20 20 13 0 20 -7 20 -20z"/>
<path d="M440 1020 c0 -13 7 -20 20 -20 13 0 20 7 20 20 0 13 -7 20 -20 20
-13 0 -20 -7 -20 -20z"/>
<path d="M440 800 c0 -33 3 -40 20 -40 17 0 20 7 20 40 0 33 -3 40 -20 40 -17
0 -20 -7 -20 -40z"/>
<path d="M560 520 c0 -33 3 -40 20 -40 17 0 20 7 20 40 0 33 -3 40 -20 40 -17
0 -20 -7 -20 -40z"/>
<path d="M680 500 c0 -13 7 -20 20 -20 13 0 20 7 20 20 0 13 -7 20 -20 20 -13
0 -20 -7 -20 -20z"/>
<path d="M760 460 c0 -17 7 -20 40 -20 33 0 40 3 40 20 0 17 -7 20 -40 20 -33
0 -40 -3 -40 -20z"/>
<path d="M720 380 c0 -17 7 -20 40 -20 33 0 40 3 40 20 0 17 -7 20 -40 20 -33
0 -40 -3 -40 -20z"/>
<path d="M880 260 c0 -13 7 -20 20 -20 13 0 20 7 20 20 0 13 -7 20 -20 20 -13
0 -20 -7 -20 -20z"/>
<path d="M880 1020 l0 -140 140 0 140 0 0 140 0 140 -140 0 -140 0 0 -140z
m240 0 l0 -100 -100 0 -100 0 0 100 0 100 100 0 100 0 0 -100z"/>
<path d="M960 1020 l0 -60 60 0 60 0 0 60 0 60 -60 0 -60 0 0 -60z"/>
<path d="M1120 780 c0 -13 7 -20 20 -20 13 0 20 7 20 20 0 13 -7 20 -20 20
-13 0 -20 -7 -20 -20z"/>
<path d="M0 660 c0 -13 7 -20 20 -20 13 0 20 7 20 20 0 13 -7 20 -20 20 -13 0
-20 -7 -20 -20z"/>
<path d="M1120 620 c0 -13 7 -20 20 -20 13 0 20 7 20 20 0 13 -7 20 -20 20
-13 0 -20 -7 -20 -20z"/>
<path d="M0 540 c0 -13 7 -20 20 -20 13 0 20 7 20 20 0 13 -7 20 -20 20 -13 0
-20 -7 -20 -20z"/>
<path d="M0 400 c0 -73 2 -80 20 -80 18 0 20 7 20 80 0 73 -2 80 -20 80 -18 0
-20 -7 -20 -80z"/>
<path d="M1120 460 c0 -13 7 -20 20 -20 13 0 20 7 20 20 0 13 -7 20 -20 20
-13 0 -20 -7 -20 -20z"/>
<path d="M0 140 l0 -140 140 0 140 0 0 140 0 140 -140 0 -140 0 0 -140z m240
0 l0 -100 -100 0 -100 0 0 100 0 100 100 0 100 0 0 -100z"/>
<path d="M80 140 l0 -60 60 0 60 0 0 60 0 60 -60 0 -60 0 0 -60z"/>
<path d="M320 20 c0 -17 7 -20 40 -20 33 0 40 3 40 20 0 17 -7 20 -40 20 -33
0 -40 -3 -40 -20z"/>
</g>
</svg>
